<?xml version="1.0" encoding="UTF-8" standalone="no"?>
<!-- Created with Inkscape (http://www.inkscape.org/) -->

<svg
   xmlns:dc="http://purl.org/dc/elements/1.1/"
   xmlns:cc="http://creativecommons.org/ns#"
   xmlns:rdf="http://www.w3.org/1999/02/22-rdf-syntax-ns#"
   xmlns:svg="http://www.w3.org/2000/svg"
   xmlns="http://www.w3.org/2000/svg"
   xmlns:sodipodi="http://sodipodi.sourceforge.net/DTD/sodipodi-0.dtd"
   xmlns:inkscape="http://www.inkscape.org/namespaces/inkscape"
   width="210mm"
   height="297mm"
   viewBox="0 0 744.09448819 1052.3622047"
   id="svg2"
   version="1.1"
   inkscape:version="0.91 r13725"
   sodipodi:docname="tehLisaIdeas.svg">
  <defs
     id="defs4" />
  <sodipodi:namedview
     id="base"
     pagecolor="#ffffff"
     bordercolor="#666666"
     borderopacity="1.0"
     inkscape:pageopacity="0.0"
     inkscape:pageshadow="2"
     inkscape:zoom="2.19"
     inkscape:cx="120.89336"
     inkscape:cy="654.69683"
     inkscape:document-units="px"
     inkscape:current-layer="layer1"
     showgrid="false"
     inkscape:window-width="1680"
     inkscape:window-height="1027"
     inkscape:window-x="-8"
     inkscape:window-y="-8"
     inkscape:window-maximized="1" />
  <metadata
     id="metadata7">
    <rdf:RDF>
      <cc:Work
         rdf:about="">
        <dc:format>image/svg+xml</dc:format>
        <dc:type
           rdf:resource="http://purl.org/dc/dcmitype/StillImage" />
        <dc:title></dc:title>
      </cc:Work>
    </rdf:RDF>
  </metadata>
  <g
     inkscape:label="Layer 1"
     inkscape:groupmode="layer"
     id="layer1">
    <text
       xml:space="preserve"
       style="font-style:normal;font-variant:normal;font-weight:normal;font-stretch:normal;font-size:180px;line-height:125%;font-family:Gabriola;-inkscape-font-specification:Gabriola;letter-spacing:0px;word-spacing:0px;fill:#000000;fill-opacity:1;stroke:none;stroke-width:1px;stroke-linecap:butt;stroke-linejoin:miter;stroke-opacity:1"
       x="209.09091"
       y="198.95311"
       id="text4136"
       sodipodi:linespacing="125%"><tspan
         sodipodi:role="line"
         id="tspan4138"
         x="209.09091"
         y="198.95311">tehLisa!</tspan></text>
    <rect
       style="opacity:1;fill:#e6e6e6;fill-opacity:1;stroke:#000000;stroke-width:7.30000019;stroke-miterlimit:4;stroke-dasharray:none;stroke-opacity:1"
       id="rect4166"
       width="204.57516"
       height="165.35948"
       x="140.52287"
       y="427.5256" />
    <text
       xml:space="preserve"
       style="font-style:normal;font-variant:normal;font-weight:normal;font-stretch:normal;font-size:180px;line-height:125%;font-family:Gabriola;-inkscape-font-specification:Gabriola;letter-spacing:0px;word-spacing:0px;fill:#000000;fill-opacity:1;stroke:none;stroke-width:1px;stroke-linecap:butt;stroke-linejoin:miter;stroke-opacity:1"
       x="170.14005"
       y="551.19434"
       id="text4136-7"
       sodipodi:linespacing="125%"><tspan
         sodipodi:role="line"
         id="tspan4138-4"
         x="170.14005"
         y="551.19434">t</tspan></text>
    <text
       xml:space="preserve"
       style="font-style:normal;font-variant:normal;font-weight:normal;font-stretch:normal;font-size:180px;line-height:125%;font-family:Gabriola;-inkscape-font-specification:Gabriola;letter-spacing:0px;word-spacing:0px;fill:#000000;fill-opacity:1;stroke:none;stroke-width:1px;stroke-linecap:butt;stroke-linejoin:miter;stroke-opacity:1"
       x="166.73096"
       y="555.17163"
       id="text4136-3"
       sodipodi:linespacing="125%"><tspan
         sodipodi:role="line"
         id="tspan4138-9"
         x="166.73096"
         y="555.17163">L!</tspan></text>
    <path
       style="opacity:1;fill:#e6e6e6;fill-opacity:1;stroke:#000000;stroke-width:0;stroke-miterlimit:4;stroke-dasharray:none;stroke-opacity:1"
       d="m 360.42062,368.54638 0,-78.75817 98.36601,0 98.36601,0 0,78.75817 0,78.75817 -98.36601,0 -98.36601,0 0,-78.75817 z m 86.6013,45.67114 c 4.12952,-1.90781 6.51821,-8.13857 7.28117,-18.99246 l 0.42811,-6.09045 -2.25101,0 -2.25101,0 -0.79023,4.60825 c -1.86846,10.896 -5.71669,13.77126 -17.01443,12.71258 -4.80932,-0.45067 -4.91447,-0.49669 -3.19435,-1.39795 1.92298,-1.00755 2.12748,-1.63158 1.13961,-3.47744 -0.6087,-1.13737 -0.83386,-1.11507 -4.73856,0.46929 -7.75634,3.14719 -13.39598,2.1384 -16.36267,-2.92688 -1.07193,-1.8302 -1.10339,-3.18932 -0.45225,-19.53953 0.38491,-9.66487 0.84671,-19.35 1.02624,-21.52251 l 0.32642,-3.95 8.03402,0.26746 c 9.47052,0.31529 11.02848,-0.17283 10.71986,-3.35859 l -0.20157,-2.08076 -8.49673,0.18958 c -4.67321,0.10427 -8.90948,-0.088 -9.41395,-0.42731 -1.35245,-0.90961 -0.56051,-13.20805 1.59855,-24.82478 1.11532,-6.00092 1.51641,-9.60249 1.11418,-10.00472 -0.87572,-0.87571 -6.70168,-1.5222 -12.90663,-1.4322 -6.85553,0.0994 -17.5619,2.57405 -17.03844,3.93817 0.20448,0.53286 0.37178,1.38666 0.37178,1.89733 0,0.73976 1.22405,0.91539 6.02142,0.86397 8.63956,-0.0926 8.35766,-0.63621 8.35766,16.11727 l 0,13.29666 -2.45098,0.40684 c -5.36102,0.88986 -9.31372,2.83907 -9.31372,4.59291 0,0.84278 0.8741,0.92282 5.91903,0.54198 l 5.91904,-0.44683 -0.35217,1.56713 c -0.74762,3.32689 -1.68249,22.17299 -1.69331,34.13548 -0.006,6.89134 -0.30078,15.27768 -0.65455,18.63631 -0.35378,3.35863 -0.50572,6.32912 -0.33764,6.60108 0.16808,0.27195 2.30087,0.11261 4.73953,-0.35411 2.43866,-0.4667 7.22804,-1.04149 10.64307,-1.2773 5.92146,-0.40888 7.94323,-0.23097 26.14379,2.3006 4.14562,0.57662 7.34343,0.24864 10.13072,-1.03907 z m 32.21125,0.0408 c 3.44725,-2.41455 4.65683,-8.75346 2.28121,-11.95493 -2.47674,-3.33774 -8.0559,-3.4988 -11.00407,-0.31767 -4.47045,4.8237 -1.44588,13.29267 4.74728,13.29267 1.38557,0 3.17459,-0.45904 3.97558,-1.02007 z m -0.50387,-27.90153 c 0.0548,-5.58681 4.22713,-44.39786 6.76277,-62.9085 0.83713,-6.11111 1.33521,-11.32911 1.10687,-11.59555 -0.78683,-0.9181 -6.55819,-1.62987 -9.23972,-1.13952 -5.09259,0.93125 -4.85728,-0.45671 -4.76407,28.10103 0.0457,13.99198 0.29787,30.59687 0.56045,36.89974 l 0.47742,11.45979 2.54412,0 c 1.59529,0 2.54712,-0.3047 2.55216,-0.81699 z"
       id="path4168"
       inkscape:connector-curvature="0" />
    <g
       id="g4214"
       inkscape:export-filename="C:\Users\michael\Documents\GitHub\griff\Doodles\GameLogos\Finals\tehLisa2.png"
       inkscape:export-xdpi="90"
       inkscape:export-ydpi="90">
      <rect
         y="215.83252"
         x="-19.178082"
         height="160.27397"
         width="160.27397"
         id="rect4178"
         style="opacity:1;fill:#37c871;fill-opacity:1;stroke:#000000;stroke-width:10;stroke-miterlimit:4;stroke-dasharray:none;stroke-opacity:1" />
      <path
         sodipodi:nodetypes="cccccccscccssscccscccsccsccscccccsacscccsccssscccscsssc"
         inkscape:connector-curvature="0"
         id="path4170"
         d="m 77.206323,232.31066 c -2.45986,1.14414 -4.807711,2.5368 -5.079489,3.26445 -0.511165,1.36861 14.335403,35.08424 24.500093,55.63722 l 6.466303,13.07334 2.07941,-1.16863 2.08021,-1.16684 -2.78755,-8.06927 c -4.23834,-12.26635 -9.881509,-29.44087 -15.461113,-47.06256 -3.848337,-12.15392 -5.27339,-15.98913 -6.04912,-16.27846 -0.717406,-0.2676 -3.288868,0.62664 -5.748744,1.77075 z m -67.5004835,32.7134 c -4.2931088,1.91814 -9.4680833,4.6661 -12.0746756,6.57494 -4.9752305,3.64342 -5.8952566,4.75522 -5.2005716,6.27637 0.6403451,1.40219 1.9616967,1.18208 7.99601524,-1.33053 C 6.5331495,274.00214 6.377731,273.8549 13.127925,288.6066 l 5.333905,11.6516 -3.408628,2.70107 c -1.874127,1.48581 -3.890203,3.46887 -4.480855,4.40604 -1.8732142,2.9722 -0.445484,3.03514 5.087595,0.22312 l 5.112841,-2.59901 0.427118,1.86621 c 0.700307,3.0539 8.947903,23.70015 13.560311,33.94834 2.360637,5.24498 5.19155,11.98345 6.290895,14.97424 1.099308,2.99082 2.236435,5.4669 2.528454,5.50364 0.291998,0.0368 3.627247,-1.87163 7.411717,-4.24149 7.289479,-4.56476 13.834056,-7.34203 23.660545,-10.04518 l 0.0016,-4.2e-4 c 7.664535,-2.10849 13.192211,-4.69278 15.086683,-7.0508 3.062691,-3.81209 2.695586,-10.05731 -1.236631,-20.99268 l -1.829887,-5.08833 -2.050223,0.93628 -2.052006,0.93712 1.241686,4.64194 c 1.657658,6.20521 1.294541,9.94695 -1.27329,13.15522 -2.077002,2.59501 -7.156021,4.89104 -11.242227,6.11748 -7.053096,2.11693 -18.419262,7.4619 -22.012379,1.87182 -1.969726,-1.60892 -2.489945,-2.67694 -8.713927,-17.91507 -3.64033,-8.91262 -7.158627,-17.80002 -7.818928,-19.74951 l -1.20257,-3.54543 7.071135,-2.86208 c 7.999621,-3.23939 9.796751,-4.75498 8.641287,-7.28513 l -0.670985,-1.46926 -7.767294,3.34532 c -4.950214,2.13186 -8.198217,3.22768 -8.958511,3.02189 -1.579195,-0.42743 -5.638674,-10.7232 -8.434782,-21.39426 -2.460409,-9.38988 -3.414667,-11.207 -5.69376,-10.84097 -1.197248,0.19227 -3.455311,1.04517 -6.0311834,2.19606 z M 110.8329,314.48648 c -0.63327,0.25941 -1.19786,0.73316 -2.07108,1.57708 -2.65017,2.56127 -3.25178,5.71211 -1.7033,8.91773 1.32221,2.73738 3.49427,4.34767 6.14089,4.55602 3.79408,0.29867 6.73748,-2.52327 6.91562,-6.63016 0.22369,-5.15678 -2.50054,-8.645 -6.8003,-8.70809 -1.14602,-0.0168 -1.84855,0.028 -2.48183,0.28742 z"
         style="opacity:1;fill:#000000;fill-opacity:1;stroke:#000000;stroke-width:0;stroke-miterlimit:4;stroke-dasharray:none;stroke-opacity:1" />
    </g>
    <g
       id="g4210">
      <path
         sodipodi:nodetypes="cccccccscccssscccscccsccsccscccccsacscccsccssscccscsssc"
         inkscape:connector-curvature="0"
         id="path4170-4"
         d="m 8.5349715,410.60806 c -2.57402,1.19724 -5.03084,2.65454 -5.31523,3.41596 -0.5349,1.43213 15.0007205,36.71254 25.6371805,58.21941 l 6.76641,13.68009 2.17591,-1.22287 2.17676,-1.22099 -2.91692,-8.44378 c -4.43505,-12.83564 -10.34013,-30.80725 -16.17869,-49.24679 -4.02695,-12.718 -5.51814,-16.7312 -6.32987,-17.03396 -0.75071,-0.28002 -3.44151,0.65572 -6.0155505,1.85293 z m -70.6332705,34.23167 c -4.49236,2.00717 -9.9075,4.88266 -12.63507,6.88009 -5.20614,3.81252 -6.16887,4.97592 -5.44193,6.56767 0.67005,1.46726 2.05273,1.23694 8.36711,-1.39228 6.38995,-2.66071 6.22732,-2.81479 13.2908,12.62156 l 5.58146,12.19236 -3.56682,2.82643 c -1.96111,1.55477 -4.07076,3.62987 -4.68882,4.61053 -1.96015,3.11015 -0.46616,3.17601 5.32372,0.23348 l 5.35013,-2.71964 0.44693,1.95283 c 0.732821,3.19563 9.363201,24.80011 14.189681,35.52393 2.47019,5.48841 5.43249,12.53962 6.58285,15.66921 1.15033,3.12963 2.34024,5.72063 2.6458,5.75908 0.30555,0.0385 3.7956,-1.9585 7.75571,-4.43835 7.62779,-4.77661 14.4761195,-7.68278 24.7586595,-10.51139 l 0.002,-4.4e-4 c 8.0202505,-2.20634 13.8044705,-4.91057 15.7868705,-7.37803 3.20484,-3.98902 2.82069,-10.5241 -1.29402,-21.96699 l -1.91482,-5.32448 -2.14538,0.97973 -2.14724,0.98061 1.29932,4.85738 c 1.73459,6.4932 1.35462,10.4086 -1.33239,13.76578 -2.17339,2.71545 -7.4881405,5.11804 -11.7639905,6.4014 -7.38044,2.21518 -19.2741195,7.80822 -23.0340095,1.95869 -2.06113,-1.68359 -2.6055,-2.80118 -9.11834,-18.74654 -3.80928,-9.32626 -7.49087,-18.62614 -8.18182,-20.66611 l -1.25838,-3.70997 7.39931,-2.99492 c 8.37089,-3.38973 10.25143,-4.97566 9.04234,-7.62324 l -0.70213,-1.53745 -8.12778,3.50058 c -5.17995,2.2308 -8.57871,3.37748 -9.37428,3.16214 -1.65249,-0.44727 -5.90037,-11.22088 -8.826251,-22.38719 -2.5746,-9.82568 -3.57315,-11.72713 -5.95802,-11.34412 -1.25281,0.2012 -3.61567,1.09368 -6.3111,2.29799 z m 105.8205,51.75803 c -0.66266,0.27145 -1.25345,0.76719 -2.1672,1.65028 -2.773169,2.68014 -3.402699,5.97721 -1.782349,9.33161 1.383579,2.86443 3.656439,4.54945 6.425899,4.76747 3.97016,0.31253 7.05017,-2.64038 7.23658,-6.93787 0.23407,-5.39611 -2.61659,-9.04623 -7.11591,-9.11225 -1.19921,-0.0176 -1.93435,0.0293 -2.59702,0.30076 z"
         style="opacity:1;fill:#00222b;fill-opacity:1;stroke:#00222b;stroke-width:0;stroke-miterlimit:4;stroke-dasharray:none;stroke-opacity:1" />
      <path
         sodipodi:nodetypes="cccccccscccssscccscccsccsccscccccsacscccsccssscccscsssc"
         inkscape:connector-curvature="0"
         id="path4170-4-8"
         d="m 1.8512115,411.16001 c -2.45986,1.14414 -4.80771,2.5368 -5.07949,3.26445 -0.51117,1.36861 14.3354005,35.08424 24.5001005,55.63722 l 6.4663,13.07334 2.07941,-1.16863 2.08021,-1.16684 -2.78755,-8.06927 c -4.23834,-12.26635 -9.88151,-29.44087 -15.46112,-47.06256 -3.8483405,-12.15392 -5.2733905,-15.98913 -6.0491205,-16.27846 -0.71741,-0.2676 -3.28887,0.62664 -5.74874,1.77075 z m -67.5004905,32.7134 c -4.29311,1.91814 -9.46808,4.6661 -12.07467,6.57494 -4.97523,3.64342 -5.89526,4.75522 -5.20057,6.27637 0.64034,1.40219 1.96169,1.18208 7.99601,-1.33053 6.10654,-2.5427 5.95112,-2.68994 12.70132,12.06176 l 5.3339,11.6516 -3.40862,2.70107 c -1.87413,1.48581 -3.89021,3.46887 -4.48086,4.40604 -1.87321,2.9722 -0.44548,3.03514 5.0876,0.22312 l 5.11284,-2.59901 0.42711,1.86621 c 0.70031,3.0539 8.947911,23.70016 13.560321,33.94835 2.36063,5.24498 5.19155,11.98345 6.29089,14.97424 1.09931,2.99082 2.23644,5.4669 2.52845,5.50364 0.292,0.0368 3.62725,-1.87163 7.41172,-4.24149 7.28948,-4.56476 13.83406,-7.34203 23.6605495,-10.04518 l 0.002,-4.2e-4 c 7.66453,-2.10849 13.1922105,-4.69278 15.0866805,-7.0508 3.0627,-3.81209 2.69559,-10.05732 -1.23663,-20.99269 l -1.82989,-5.08833 -2.0502205,0.93628 -2.05201,0.93712 1.24169,4.64194 c 1.6576605,6.20521 1.29454,9.94695 -1.27329,13.15523 -2.077,2.59501 -7.15602,4.89104 -11.24223,6.11748 -7.0530895,2.11693 -18.4192595,7.4619 -22.0123795,1.87182 -1.96972,-1.60892 -2.48994,-2.67694 -8.71392,-17.91508 -3.64033,-8.91262 -7.15863,-17.80002 -7.81893,-19.74951 l -1.20257,-3.54543 7.07113,-2.86208 c 7.99962,-3.23939 9.79675,-4.75498 8.64129,-7.28513 l -0.67099,-1.46926 -7.76729,3.34532 c -4.95021,2.13186 -8.19822,3.22768 -8.95851,3.02189 -1.5792,-0.42743 -5.638671,-10.7232 -8.434781,-21.39426 -2.46041,-9.38988 -3.41467,-11.207 -5.69376,-10.84097 -1.19725,0.19227 -3.45531,1.04517 -6.03119,2.19606 z m 101.127071,49.46242 c -0.63327,0.25941 -1.19786,0.73316 -2.07108,1.57708 -2.65017,2.56127 -3.25178,5.71211 -1.7033,8.91773 1.32221,2.73738 3.49427,4.34767 6.14089,4.55602 3.794079,0.29867 6.737479,-2.52327 6.915619,-6.63016 0.22369,-5.15678 -2.50054,-8.645 -6.800299,-8.70809 -1.14602,-0.0168 -1.84855,0.028 -2.48183,0.28742 z"
         style="opacity:1;fill:#2ad4ff;fill-opacity:1;stroke:#2ad4ff;stroke-width:0;stroke-miterlimit:4;stroke-dasharray:none;stroke-opacity:1" />
    </g>
  </g>
</svg>
